<svg width="20" height="19" viewBox="0 0 20 19" fill="none" xmlns="http://www.w3.org/2000/svg">
<path d="M10.5479 5.46339L12.5656 3.44568L16.4687 7.34881L14.451 9.36756L10.5479 5.46339ZM19.4896 2.86443L17.0521 0.426932C16.8569 0.232921 16.5929 0.124023 16.3177 0.124023C16.0425 0.124023 15.7785 0.232921 15.5833 0.426932L13.6771 2.33318L17.5833 6.23943L19.4896 4.29152C19.6712 4.09833 19.7724 3.84314 19.7724 3.57797C19.7724 3.31281 19.6712 3.05762 19.4896 2.86443ZM0 2.20818L6.90625 9.11443L1.04167 14.9686V18.8748H4.94792L10.8125 13.0207L16.6667 18.8748L18.75 16.7915L2.08333 0.124849L0 2.20818Z" fill="#2C2C2C"/>
</svg>
