<svg width="41" height="51" viewBox="0 0 41 51" fill="none" xmlns="http://www.w3.org/2000/svg">
<path d="M35.7498 10.2499H30.6665C30.6665 4.63284 26.1169 0.083252 20.4998 0.083252C14.8828 0.083252 10.3332 4.63284 10.3332 10.2499H5.24984C2.454 10.2499 0.166504 12.5374 0.166504 15.3333V45.8333C0.166504 48.6291 2.454 50.9166 5.24984 50.9166H35.7498C38.5457 50.9166 40.8332 48.6291 40.8332 45.8333V15.3333C40.8332 12.5374 38.5457 10.2499 35.7498 10.2499ZM15.4165 20.4166C15.4165 21.8145 14.2728 22.9583 12.8748 22.9583C11.4769 22.9583 10.3332 21.8145 10.3332 20.4166V15.3333H15.4165V20.4166ZM20.4998 5.16659C23.2957 5.16659 25.5832 7.45409 25.5832 10.2499H15.4165C15.4165 7.45409 17.704 5.16659 20.4998 5.16659ZM30.6665 20.4166C30.6665 21.8145 29.5228 22.9583 28.1248 22.9583C26.7269 22.9583 25.5832 21.8145 25.5832 20.4166V15.3333H30.6665V20.4166Z" fill="#2A63E2"/>
</svg>
