<svg width="187" height="187" viewBox="0 0 187 187" fill="none" xmlns="http://www.w3.org/2000/svg">
<rect x="0.402344" y="0.282837" width="185.87" height="185.87" rx="35" fill="#FAFAE6"/>
<path d="M139.666 52.1665H46.3327C39.916 52.1665 34.7243 57.4165 34.7243 63.8332L34.666 122.167C34.666 128.583 39.916 133.833 46.3327 133.833H139.666C146.083 133.833 151.333 128.583 151.333 122.167V63.8332C151.333 57.4165 146.083 52.1665 139.666 52.1665ZM87.166 69.6665H98.8327V81.3332H87.166V69.6665ZM87.166 87.1665H98.8327V98.8332H87.166V87.1665ZM69.666 69.6665H81.3327V81.3332H69.666V69.6665ZM69.666 87.1665H81.3327V98.8332H69.666V87.1665ZM63.8327 98.8332H52.166V87.1665H63.8327V98.8332ZM63.8327 81.3332H52.166V69.6665H63.8327V81.3332ZM110.499 122.167H75.4993C72.291 122.167 69.666 119.542 69.666 116.333C69.666 113.125 72.291 110.5 75.4993 110.5H110.499C113.708 110.5 116.333 113.125 116.333 116.333C116.333 119.542 113.708 122.167 110.499 122.167ZM116.333 98.8332H104.666V87.1665H116.333V98.8332ZM116.333 81.3332H104.666V69.6665H116.333V81.3332ZM133.833 98.8332H122.166V87.1665H133.833V98.8332ZM133.833 81.3332H122.166V69.6665H133.833V81.3332Z" fill="#2A63E2"/>
</svg>
