<svg width="216" height="216" viewBox="0 0 216 216" fill="none" xmlns="http://www.w3.org/2000/svg">
<rect x="0.393555" y="0.462158" width="215.544" height="215.544" rx="35" fill="#FAFAE6"/>
<path d="M161.891 60.6294H53.6572C46.2161 60.6294 40.1956 66.7176 40.1956 74.1587L40.1279 141.805C40.1279 149.246 46.2161 155.334 53.6572 155.334H161.891C169.333 155.334 175.421 149.246 175.421 141.805V74.1587C175.421 66.7176 169.333 60.6294 161.891 60.6294ZM101.01 80.9233H114.539V94.4526H101.01V80.9233ZM101.01 101.217H114.539V114.747H101.01V101.217ZM80.7158 80.9233H94.245V94.4526H80.7158V80.9233ZM80.7158 101.217H94.245V114.747H80.7158V101.217ZM73.9511 114.747H60.4218V101.217H73.9511V114.747ZM73.9511 94.4526H60.4218V80.9233H73.9511V94.4526ZM128.068 141.805H87.4804C83.7598 141.805 80.7158 138.761 80.7158 135.04C80.7158 131.32 83.7598 128.276 87.4804 128.276H128.068C131.789 128.276 134.833 131.32 134.833 135.04C134.833 138.761 131.789 141.805 128.068 141.805ZM134.833 114.747H121.304V101.217H134.833V114.747ZM134.833 94.4526H121.304V80.9233H134.833V94.4526ZM155.127 114.747H141.598V101.217H155.127V114.747ZM155.127 94.4526H141.598V80.9233H155.127V94.4526Z" fill="#FF6B6B"/>
</svg>
