<svg width="25" height="25" viewBox="0 0 25 25" fill="none" xmlns="http://www.w3.org/2000/svg">
<g clip-path="url(#clip0_96_267)">
<path d="M12.5479 8.46351L14.5656 6.4458L18.4687 10.3489L16.451 12.3677L12.5479 8.46351ZM21.4896 5.86455L19.0521 3.42705C18.8569 3.23304 18.5929 3.12415 18.3177 3.12415C18.0425 3.12415 17.7785 3.23304 17.5833 3.42705L15.6771 5.3333L19.5833 9.23955L21.4896 7.29164C21.6712 7.09845 21.7724 6.84326 21.7724 6.5781C21.7724 6.31293 21.6712 6.05774 21.4896 5.86455ZM2 5.2083L8.90625 12.1146L3.04167 17.9687V21.875H6.94792L12.8125 16.0208L18.6667 21.875L20.75 19.7916L4.08333 3.12497L2 5.2083Z" fill="white"/>
</g>
<defs>
<clipPath id="clip0_96_267">
<rect width="25" height="25" fill="white"/>
</clipPath>
</defs>
</svg>
